HIERARCHY
ROOT Hips
{
  OFFSET 35.914 19.610 -255.202
  CHANNELS 6 Xposition Yposition Zposition Zrotation Xrotation Yrotation
  JOINT LeftUpLeg
  {
    OFFSET 5.447 -4.195 3.013
    CHANNELS 6 Xposition Yposition Zposition Zrotation Xrotation Yrotation
    JOINT LeftLeg
    {
      OFFSET -0.000 -47.445 0.000
      CHANNELS 6 Xposition Yposition Zposition Zrotation Xrotation Yrotation
      JOINT LeftFoot
      {
        OFFSET -0.000 -36.562 -0.000
        CHANNELS 6 Xposition Yposition Zposition Zrotation Xrotation Yrotation
        End Site
        {
          OFFSET -0.000 -8.428 4.866
        }
      }
    }
  }
  JOINT RightUpLeg
  {
    OFFSET -4.925 -5.209 2.896
    CHANNELS 6 Xposition Yposition Zposition Zrotation Xrotation Yrotation
    JOINT RightLeg
    {
      OFFSET -0.000 -41.852 0.000
      CHANNELS 6 Xposition Yposition Zposition Zrotation Xrotation Yrotation
      JOINT RightFoot
      {
        OFFSET 0.000 -34.198 -0.000
        CHANNELS 6 Xposition Yposition Zposition Zrotation Xrotation Yrotation
        End Site
        {
          OFFSET -0.000 -7.505 4.333
        }
      }
    }
  }
  JOINT Spine
  {
    OFFSET 0.000 5.409 -5.409
    CHANNELS 6 Xposition Yposition Zposition Zrotation Xrotation Yrotation
    JOINT LeftShoulder
    {
      OFFSET -0.000 36.436 0.000
      CHANNELS 6 Xposition Yposition Zposition Zrotation Xrotation Yrotation
      JOINT LeftArm
      {
        OFFSET 15.814 0.000 -0.000
        CHANNELS 6 Xposition Yposition Zposition Zrotation Xrotation Yrotation
        JOINT LeftForeArm
        {
          OFFSET 23.263 0.000 0.000
          CHANNELS 6 Xposition Yposition Zposition Zrotation Xrotation Yrotation
          JOINT LeftHand
          {
            OFFSET 20.938 0.000 -0.000
            CHANNELS 6 Xposition Yposition Zposition Zrotation Xrotation Yrotation
            JOINT LeftHandThumb1
            {
            OFFSET 4.970 -0.620 3.390
            CHANNELS 6 Xposition Yposition Zposition Zrotation Xrotation Yrotation
              JOINT LeftHandThumb2
              {
              OFFSET 2.150 -0.000 0.000
              CHANNELS 6 Xposition Yposition Zposition Zrotation Xrotation Yrotation
                JOINT LeftHandThumb3
                {
                OFFSET 2.200 -0.000 0.000
                CHANNELS 6 Xposition Yposition Zposition Zrotation Xrotation Yrotation
                  JOINT LeftHandThumb4
                  {
                  OFFSET 1.700 -0.000 0.000
                  CHANNELS 6 Xposition Yposition Zposition Zrotation Xrotation Yrotation
                  }
                }
              }
            }
            JOINT LeftHandIndex1
            {
            OFFSET 8.730 0.680 2.070
            CHANNELS 6 Xposition Yposition Zposition Zrotation Xrotation Yrotation
              JOINT LeftHandIndex2
              {
              OFFSET 2.670 -0.000 0.000
              CHANNELS 6 Xposition Yposition Zposition Zrotation Xrotation Yrotation
                JOINT LeftHandIndex3
                {
                OFFSET 2.130 -0.000 0.000
                CHANNELS 6 Xposition Yposition Zposition Zrotation Xrotation Yrotation
                  JOINT LeftHandIndex4
                  {
                  OFFSET 1.800 -0.000 0.000
                  CHANNELS 6 Xposition Yposition Zposition Zrotation Xrotation Yrotation
                  }
                }
              }
            }
            JOINT LeftHandMiddle1
            {
            OFFSET 9.220 0.670 0.550
            CHANNELS 6 Xposition Yposition Zposition Zrotation Xrotation Yrotation
              JOINT LeftHandMiddle2
              {
              OFFSET 2.660 -0.000 0.000
              CHANNELS 6 Xposition Yposition Zposition Zrotation Xrotation Yrotation
                JOINT LeftHandMiddle3
                {
                OFFSET 2.280 -0.000 0.000
                CHANNELS 6 Xposition Yposition Zposition Zrotation Xrotation Yrotation
                  JOINT LeftHandMiddle4
                  {
                  OFFSET 1.500 -0.000 0.000
                  CHANNELS 6 Xposition Yposition Zposition Zrotation Xrotation Yrotation
                  }
                }
              }
            }
            JOINT LeftHandRing1
            {
            OFFSET 9.250 0.670 -1.130
            CHANNELS 6 Xposition Yposition Zposition Zrotation Xrotation Yrotation
              JOINT LeftHandRing2
              {
              OFFSET 2.470 -0.000 0.000
              CHANNELS 6 Xposition Yposition Zposition Zrotation Xrotation Yrotation
                JOINT LeftHandRing3
                {
                OFFSET 2.210 -0.000 0.000
                CHANNELS 6 Xposition Yposition Zposition Zrotation Xrotation Yrotation
                  JOINT LeftHandRing4
                  {
                  OFFSET 1.800 -0.000 0.000
                  CHANNELS 6 Xposition Yposition Zposition Zrotation Xrotation Yrotation
                  }
                }
              }
            }
            JOINT LeftHandPinky1
            {
            OFFSET 9.350 0.660 -2.720
            CHANNELS 6 Xposition Yposition Zposition Zrotation Xrotation Yrotation
              JOINT LeftHandPinky2
              {
              OFFSET 1.630 -0.000 0.000
              CHANNELS 6 Xposition Yposition Zposition Zrotation Xrotation Yrotation
                JOINT LeftHandPinky3
                {
                OFFSET 1.710 -0.000 0.000
                CHANNELS 6 Xposition Yposition Zposition Zrotation Xrotation Yrotation
                  JOINT LeftHandPinky4
                  {
                  OFFSET 1.800 -0.000 0.000
                  CHANNELS 6 Xposition Yposition Zposition Zrotation Xrotation Yrotation
                  }
                }
              }
            }
          }
        }
      }
    }
    JOINT RightShoulder
    {
      OFFSET -0.000 36.436 0.000
      CHANNELS 6 Xposition Yposition Zposition Zrotation Xrotation Yrotation
      JOINT RightArm
      {
        OFFSET -16.628 0.000 -0.000
        CHANNELS 6 Xposition Yposition Zposition Zrotation Xrotation Yrotation
        JOINT RightForeArm
        {
          OFFSET -24.157 0.000 0.000
          CHANNELS 6 Xposition Yposition Zposition Zrotation Xrotation Yrotation
          JOINT RightHand
          {
            OFFSET -22.144 0.000 -0.000
            CHANNELS 6 Xposition Yposition Zposition Zrotation Xrotation Yrotation
            JOINT RightHandThumb1
            {
            OFFSET -4.970 -0.620 3.390
            CHANNELS 6 Xposition Yposition Zposition Zrotation Xrotation Yrotation
              JOINT RightHandThumb2
              {
              OFFSET -2.150 0.000 0.000
              CHANNELS 6 Xposition Yposition Zposition Zrotation Xrotation Yrotation
                JOINT RightHandThumb3
                {
                OFFSET -2.200 0.000 0.000
                CHANNELS 6 Xposition Yposition Zposition Zrotation Xrotation Yrotation
                  JOINT RightHandThumb4
                  {
                  OFFSET -1.700 0.000 0.000
                  CHANNELS 6 Xposition Yposition Zposition Zrotation Xrotation Yrotation
                  }
                }
              }
            }
            JOINT RightHandIndex1
            {
            OFFSET -8.730 0.680 2.070
            CHANNELS 6 Xposition Yposition Zposition Zrotation Xrotation Yrotation
              JOINT RightHandIndex2
              {
              OFFSET -2.670 0.000 0.000
              CHANNELS 6 Xposition Yposition Zposition Zrotation Xrotation Yrotation
                JOINT RightHandIndex3
                {
                OFFSET -2.130 0.000 0.000
                CHANNELS 6 Xposition Yposition Zposition Zrotation Xrotation Yrotation
                  JOINT RightHandIndex4
                  {
                  OFFSET -1.800 0.000 0.000
                  CHANNELS 6 Xposition Yposition Zposition Zrotation Xrotation Yrotation
                  }
                }
              }
            }
            JOINT RightHandMiddle1
            {
            OFFSET -9.220 0.670 0.550
            CHANNELS 6 Xposition Yposition Zposition Zrotation Xrotation Yrotation
              JOINT RightHandMiddle2
              {
              OFFSET -2.660 0.000 0.000
              CHANNELS 6 Xposition Yposition Zposition Zrotation Xrotation Yrotation
                JOINT RightHandMiddle3
                {
                OFFSET -2.280 0.000 0.000
                CHANNELS 6 Xposition Yposition Zposition Zrotation Xrotation Yrotation
                  JOINT RightHandMiddle4
                  {
                  OFFSET -1.500 0.000 0.000
                  CHANNELS 6 Xposition Yposition Zposition Zrotation Xrotation Yrotation
                  }
                }
              }
            }
            JOINT RightHandRing1
            {
            OFFSET -9.250 0.670 -1.130
            CHANNELS 6 Xposition Yposition Zposition Zrotation Xrotation Yrotation
              JOINT RightHandRing2
              {
              OFFSET -2.470 0.000 0.000
              CHANNELS 6 Xposition Yposition Zposition Zrotation Xrotation Yrotation
                JOINT RightHandRing3
                {
                OFFSET -2.210 0.000 0.000
                CHANNELS 6 Xposition Yposition Zposition Zrotation Xrotation Yrotation
                  JOINT RightHandRing4
                  {
                  OFFSET -1.800 0.000 0.000
                  CHANNELS 6 Xposition Yposition Zposition Zrotation Xrotation Yrotation
                  }
                }
              }
            }
            JOINT RightHandPinky1
            {
            OFFSET -9.350 0.660 -2.720
            CHANNELS 6 Xposition Yposition Zposition Zrotation Xrotation Yrotation
              JOINT RightHandPinky2
              {
              OFFSET -1.630 0.000 0.000
              CHANNELS 6 Xposition Yposition Zposition Zrotation Xrotation Yrotation
                JOINT RightHandPinky3
                {
                OFFSET -1.710 0.000 0.000
                CHANNELS 6 Xposition Yposition Zposition Zrotation Xrotation Yrotation
                  JOINT RightHandPinky4
                  {
                  OFFSET -1.800 0.000 0.000
                  CHANNELS 6 Xposition Yposition Zposition Zrotation Xrotation Yrotation
                  }
                }
              }
            }
          }
        }
      }
    }
    JOINT Neck
    {
      OFFSET -0.000 36.436 0.000
      CHANNELS 6 Xposition Yposition Zposition Zrotation Xrotation Yrotation
      JOINT Head
      {
        OFFSET -0.000 17.098 -0.000
        CHANNELS 6 Xposition Yposition Zposition Zrotation Xrotation Yrotation
        End Site
        {
          OFFSET -0.000 0.068 -0.000
        }
      }
    }
  }
}
MOTION
Frames:	5
Frame Time:	0.0333333
49.8727 16.7957 -254.609 27.6911 22.8937 -50.3269 3.95511 -3.06011 1.29822 4.20364 -21.0973 15.6486 -2.98023e-05 -50.2901 0 7.76409 -17.1791 -1.78728e-06 0 -35.6345 -4.76837e-05 -20.0012 -32.025 -20.8129 -3.4845 -3.70098 3.51884 -12.4978 -49.7412 -2.17879 -3.57628e-05 -43.7199 0 -0.220984 5.1546 0.0198485 0 -37.3614 2.38419e-05 -5.38579 -20.8358 -4.98268 0 5.84588 -5.84589 3.95037 -30.1887 -2.02605 -2.38419e-05 36.4363 2.38419e-05 -46.3124 5.12264e-06 -10.3504 14.0031 -1.19209e-05 -1.19209e-05 39.6822 62.0298 -69.3779 22.733 0 -2.38419e-05 3.1454e-07 3.73323e-06 -99.6321 25.2962 -1.19209e-05 0 0.745251 0.00703236 -2.59642 0.0062 0.0497 0.0339 0 0 0 0 0.0215 0 0 0 0 0 0.022 0 0 0 0 0 0.017 0 0 0 0 -0.0068 0.0873 0.0207 0 0 0 0 0.0267 0 0 0 0 0 0.0213 0 0 0 0 0 0.018 0 0 0 0 -0.0067 0.0922 0.0055 0 0 0 0 0.0266 0 0 0 0 0 0.0228 0 0 0 0 0 0.015 0 0 0 0 -0.0067 0.0925 -0.0113 0 0 0 0 0.0247 0 0 0 0 0 0.0221 0 0 0 0 0 0.018 0 0 0 0 -0.0066 0.0935 -0.0272 0 0 0 0 0.0163 0 0 0 0 0 0.0171 0 0 0 0 0 0.018 0 0 0 0 -2.38419e-05 36.4363 2.38419e-05 9.98961 5.12264e-06 10.2769 -14.1022 -5.96046e-06 -2.38419e-05 96.0216 -28.6864 -41.7662 -26.4005 0 0 -1.7545e-05 1.626e-05 116.873 -25.0546 0 -8.9407e-06 9.25165 -0.544484 -16.9437 -0.0062 0.0497 0.0339 0 0 0 0 0.0215 0 0 0 0 0 0.022 0 0 0 0 0 0.017 0 0 0 0 0.0068 0.0873 0.0207 0 0 0 0 0.0267 0 0 0 0 0 0.0213 0 0 0 0 0 0.018 0 0 0 0 0.0067 0.0922 0.0055 0 0 0 0 0.0266 0 0 0 0 0 0.0228 0 0 0 0 0 0.015 0 0 0 0 0.0067 0.0925 -0.0113 0 0 0 0 0.0247 0 0 0 0 0 0.0221 0 0 0 0 0 0.018 0 0 0 0 0.0066 0.0935 -0.0272 0 0 0 0 0.0163 0 0 0 0 0 0.0171 0 0 0 0 0 0.018 0 0 0 0 -2.38419e-05 36.4363 2.38419e-05 7.02105 0.308799 -0.0380293 -2.38419e-05 18.7608 -4.76837e-05 1.10991e-05 -1.00318e-05 3.4151e-06 
50.1956 16.597 -254.599 28.0322 22.2001 -51.4505 3.77957 -3.16476 1.08864 3.80499 -21.1128 18.8566 1.78814e-05 -50.2599 -4.76837e-05 7.25383 -17.391 -1.78934e-06 -5.96046e-06 -35.7616 7.15256e-05 -21.9118 -31.6917 -22.8762 -3.34213 -3.52727 3.60163 -12.5034 -49.7093 1.4915 0 -43.7863 0 0.0112447 4.68568 -0.000914888 0 -37.1486 0 -6.1661 -20.3446 -5.56538 0 5.84679 -5.84679 3.72523 -30.241 -2.22757 4.76837e-05 36.4363 2.38419e-05 -45.4335 8.53774e-06 -9.90334 13.8999 2.38419e-05 2.38419e-05 36.9808 62.0277 -66.5111 22.6685 2.38419e-05 -2.38419e-05 5.45775e-05 -7.9805e-07 -99.1677 25.2029 -2.38419e-05 0 -0.0385308 0.0146098 -2.32091 0.0062 0.0497 0.0339 0 0 0 0 0.0215 0 0 0 0 0 0.022 0 0 0 0 0 0.017 0 0 0 0 -0.0068 0.0873 0.0207 0 0 0 0 0.0267 0 0 0 0 0 0.0213 0 0 0 0 0 0.018 0 0 0 0 -0.0067 0.0922 0.0055 0 0 0 0 0.0266 0 0 0 0 0 0.0228 0 0 0 0 0 0.015 0 0 0 0 -0.0067 0.0925 -0.0113 0 0 0 0 0.0247 0 0 0 0 0 0.0221 0 0 0 0 0 0.018 0 0 0 0 -0.0066 0.0935 -0.0272 0 0 0 0 0.0163 0 0 0 0 0 0.0171 0 0 0 0 0 0.018 0 0 0 0 4.76837e-05 36.4363 2.38419e-05 8.48574 4.26887e-06 9.73987 -14.1309 5.96046e-06 -2.38419e-05 97.0418 -27.4613 -41.4317 -26.0755 2.38419e-05 4.76837e-05 -4.00946e-06 1.6504e-05 117.31 -24.7595 0 1.78814e-05 10.0937 -0.410767 -17.69 -0.0062 0.0497 0.0339 0 0 0 0 0.0215 0 0 0 0 0 0.022 0 0 0 0 0 0.017 0 0 0 0 0.0068 0.0873 0.0207 0 0 0 0 0.0267 0 0 0 0 0 0.0213 0 0 0 0 0 0.018 0 0 0 0 0.0067 0.0922 0.0055 0 0 0 0 0.0266 0 0 0 0 0 0.0228 0 0 0 0 0 0.015 0 0 0 0 0.0067 0.0925 -0.0113 0 0 0 0 0.0247 0 0 0 0 0 0.0221 0 0 0 0 0 0.018 0 0 0 0 0.0066 0.0935 -0.0272 0 0 0 0 0.0163 0 0 0 0 0 0.0171 0 0 0 0 0 0.018 0 0 0 0 4.76837e-05 36.4363 2.38419e-05 6.14539 0.234913 -0.0252822 1.19209e-05 18.8543 4.76837e-05 7.68396e-06 -9.39151e-06 0 
50.3508 16.4974 -254.606 28.098 21.9255 -51.8884 3.68153 -3.22763 0.973868 3.9009 -20.9941 20.7323 -2.38419e-05 -48.5708 9.53674e-05 6.11218 -16.9567 1.07109e-05 5.96046e-06 -36.9787 -7.15256e-05 -23.0574 -31.2435 -24.0674 -3.26594 -3.42106 3.64845 -12.6026 -49.6642 3.6667 -1.19209e-05 -43.8799 0 0.416898 4.41462 -0.0320895 0 -36.6922 4.76837e-05 -6.83282 -20.0669 -6.08177 2.38419e-05 5.84334 -5.84335 3.64119 -30.2431 -2.28866 0 36.4363 -4.76837e-05 -44.8194 2.21981e-05 -9.466 13.8365 0 2.38419e-05 35.7078 61.695 -65.4891 22.6946 0 3.57628e-05 9.43278e-05 -1.63816e-05 -99.0387 25.2817 3.57628e-05 -1.19209e-05 -0.402091 0.016233 -2.15016 0.0062 0.0497 0.0339 0 0 0 0 0.0215 0 0 0 0 0 0.022 0 0 0 0 0 0.017 0 0 0 0 -0.0068 0.0873 0.0207 0 0 0 0 0.0267 0 0 0 0 0 0.0213 0 0 0 0 0 0.018 0 0 0 0 -0.0067 0.0922 0.0055 0 0 0 0 0.0266 0 0 0 0 0 0.0228 0 0 0 0 0 0.015 0 0 0 0 -0.0067 0.0925 -0.0113 0 0 0 0 0.0247 0 0 0 0 0 0.0221 0 0 0 0 0 0.018 0 0 0 0 -0.0066 0.0935 -0.0272 0 0 0 0 0.0163 0 0 0 0 0 0.0171 0 0 0 0 0 0.018 0 0 0 0 0 36.4363 -4.76837e-05 7.73241 4.26887e-06 9.25826 -14.1441 -1.78814e-05 7.15256e-05 97.8714 -26.4419 -41.0661 -25.8969 4.76837e-05 0 -2.52547e-06 1.0311e-05 117.525 -24.6486 -4.76837e-05 -2.98023e-06 10.2735 -0.324477 -18.1655 -0.0062 0.0497 0.0339 0 0 0 0 0.0215 0 0 0 0 0 0.022 0 0 0 0 0 0.017 0 0 0 0 0.0068 0.0873 0.0207 0 0 0 0 0.0267 0 0 0 0 0 0.0213 0 0 0 0 0 0.018 0 0 0 0 0.0067 0.0922 0.0055 0 0 0 0 0.0266 0 0 0 0 0 0.0228 0 0 0 0 0 0.015 0 0 0 0 0.0067 0.0925 -0.0113 0 0 0 0 0.0247 0 0 0 0 0 0.0221 0 0 0 0 0 0.018 0 0 0 0 0.0066 0.0935 -0.0272 0 0 0 0 0.0163 0 0 0 0 0 0.0171 0 0 0 0 0 0.018 0 0 0 0 0 36.4363 -4.76837e-05 6.5108 0.679149 -0.0775059 -1.19209e-05 18.9469 0 1.15259e-05 -1.08856e-05 0 
50.4491 16.4083 -254.606 27.6963 22.1144 -51.5698 3.59731 -3.24354 0.904953 3.86066 -20.39 22.0669 -5.96046e-06 -46.8662 -2.38419e-05 5.6998 -17.7918 -8.96658e-06 -1.19209e-05 -38.0163 4.76837e-05 -24.169 -30.5493 -25.1502 -3.18227 -3.34234 3.66248 -12.8493 -49.4735 4.96765 -1.19209e-05 -43.9415 -9.53674e-05 0.946222 4.21504 -0.0695487 -2.38419e-05 -36.2725 -2.38419e-05 -7.64596 -19.8109 -6.72445 0 5.84253 -5.84249 3.81162 -30.2349 -2.11454 0 36.4363 2.38419e-05 -44.4562 1.19528e-05 -9.71809 13.7646 1.19209e-05 -1.19209e-05 36.2214 62.0491 -65.8709 22.7374 -3.57628e-05 -1.19209e-05 1.33602e-05 -4.63744e-06 -97.407 24.2669 0 1.19209e-05 -0.715784 0.0168117 -1.94253 0.0062 0.0497 0.0339 0 0 0 0 0.0215 0 0 0 0 0 0.022 0 0 0 0 0 0.017 0 0 0 0 -0.0068 0.0873 0.0207 0 0 0 0 0.0267 0 0 0 0 0 0.0213 0 0 0 0 0 0.018 0 0 0 0 -0.0067 0.0922 0.0055 0 0 0 0 0.0266 0 0 0 0 0 0.0228 0 0 0 0 0 0.015 0 0 0 0 -0.0067 0.0925 -0.0113 0 0 0 0 0.0247 0 0 0 0 0 0.0221 0 0 0 0 0 0.018 0 0 0 0 -0.0066 0.0935 -0.0272 0 0 0 0 0.0163 0 0 0 0 0 0.0171 0 0 0 0 0 0.018 0 0 0 0 0 36.4363 2.38419e-05 7.32932 6.4033e-06 9.37348 -14.2659 5.96046e-06 -2.38419e-05 98.1742 -26.1949 -42.3464 -26.1597 -2.38419e-05 1.19209e-05 -1.81213e-05 1.73505e-05 118.838 -25.2813 7.15256e-05 -5.96046e-06 10.2392 -0.257894 -18.3796 -0.0062 0.0497 0.0339 0 0 0 0 0.0215 0 0 0 0 0 0.022 0 0 0 0 0 0.017 0 0 0 0 0.0068 0.0873 0.0207 0 0 0 0 0.0267 0 0 0 0 0 0.0213 0 0 0 0 0 0.018 0 0 0 0 0.0067 0.0922 0.0055 0 0 0 0 0.0266 0 0 0 0 0 0.0228 0 0 0 0 0 0.015 0 0 0 0 0.0067 0.0925 -0.0113 0 0 0 0 0.0247 0 0 0 0 0 0.0221 0 0 0 0 0 0.018 0 0 0 0 0.0066 0.0935 -0.0272 0 0 0 0 0.0163 0 0 0 0 0 0.0171 0 0 0 0 0 0.018 0 0 0 0 0 36.4363 2.38419e-05 6.34103 0.521815 -0.0579907 4.76837e-05 19.0428 0 7.25708e-06 -8.75118e-06 0 
50.4618 16.3143 -254.613 27.571 21.8981 -51.9724 3.45043 -3.30592 0.779819 3.77311 -19.7343 24.7212 4.17233e-05 -45.3911 0 4.89311 -18.4947 -3.60108e-06 -1.78814e-05 -38.8078 -4.76837e-05 -25.3783 -29.6146 -26.2578 -3.07153 -3.2045 3.72411 -14.0784 -49.7992 6.85863 -5.96046e-06 -44.6255 7.15256e-05 2.84923 4.93346 -0.245232 0 -36.481 -2.38419e-05 -8.71853 -19.6487 -7.60342 0 5.84555 -5.84558 3.78458 -30.1472 -2.12457 3.57628e-05 36.4363 0 -44.0398 1.19528e-05 -9.31289 13.6634 0 0 35.5709 61.7957 -64.9244 22.8004 0 3.57628e-05 7.14713e-05 -7.72382e-06 -97.0094 24.3886 2.38419e-05 0 -0.926822 0.0158659 -1.76889 0.0062 0.0497 0.0339 0 0 0 0 0.0215 0 0 0 0 0 0.022 0 0 0 0 0 0.017 0 0 0 0 -0.0068 0.0873 0.0207 0 0 0 0 0.0267 0 0 0 0 0 0.0213 0 0 0 0 0 0.018 0 0 0 0 -0.0067 0.0922 0.0055 0 0 0 0 0.0266 0 0 0 0 0 0.0228 0 0 0 0 0 0.015 0 0 0 0 -0.0067 0.0925 -0.0113 0 0 0 0 0.0247 0 0 0 0 0 0.0221 0 0 0 0 0 0.018 0 0 0 0 -0.0066 0.0935 -0.0272 0 0 0 0 0.0163 0 0 0 0 0 0.0171 0 0 0 0 0 0.018 0 0 0 0 3.57628e-05 36.4363 0 7.01758 -5.12264e-06 8.92343 -14.2546 -5.96046e-06 -4.76837e-05 98.7996 -25.0579 -42.0702 -25.9517 -4.76837e-05 0 7.44906e-06 2.40414e-05 118.972 -25.23 4.76837e-05 -2.98023e-06 9.93399 -0.198861 -18.6469 -0.0062 0.0497 0.0339 13.384 0 0 0 0.0215 0 0 -13.384 0 0 0.022 0 0 -13.384 0 0 0.017 0 0 0 0 0.0068 0.0873 0.0207 13.384 0 0 0 0.0267 0 23.7938 0 0 0 0.0213 0 26.768 0 0 0 0.018 0 0 0 0 0.0067 0.0922 0.0055 13.384 0 0 0 0.0266 0 23.7938 0 0 0 0.0228 0 26.768 0 0 0 0.015 0 0 0 0 0.0067 0.0925 -0.0113 13.384 0 0 0 0.0247 0 23.7938 0 0 0 0.0221 0 26.768 0 0 0 0.018 0 0 0 0 0.0066 0.0935 -0.0272 13.384 0 0 0 0.0163 0 23.7938 0 0 0 0.0171 0 26.768 0 0 0 0.018 0 0 0 0 3.57628e-05 36.4363 0 6.43016 0.688352 -0.0775898 -2.38419e-05 19.1555 2.38419e-05 1.02453e-05 -8.53774e-06 -5.12264e-06 
